HIERARCHY
ROOT Hips
{
	OFFSET 0.000000 103.266502 0.000000
	CHANNELS 6 Xposition Yposition Zposition Xrotation Yrotation Zrotation 
	JOINT Spine
	{
		OFFSET -0.002400 12.777504 0.315300
		CHANNELS 3 Xrotation Yrotation Zrotation
		JOINT Spine1
		{
			OFFSET -0.002067 5.816869 0.032633
			CHANNELS 3 Xrotation Yrotation Zrotation
			JOINT Spine1_split
			{
				OFFSET -0.002067 5.816869 0.032633
				CHANNELS 3 Xrotation Yrotation Zrotation
				JOINT Spine2
				{
					OFFSET -0.002067 5.816869 0.032633
					CHANNELS 3 Xrotation Yrotation Zrotation
					JOINT Neck
					{
						OFFSET -0.003700 21.199493 -0.826900
						CHANNELS 3 Xrotation Yrotation Zrotation
						JOINT Head
						{
							OFFSET 0.000000 20.442200 4.834800
							CHANNELS 3 Xrotation Yrotation Zrotation
							JOINT HeadTop_End
							{
								OFFSET 0.000000 34.668396 4.968400
								CHANNELS 3 Xrotation Yrotation Zrotation
								End Site
								{
									OFFSET 0.000000 0.000000 0.000000
								}
							}
						}
					}
					JOINT LeftShoulder
					{
						OFFSET 3.288150 8.794197 -1.372250
						CHANNELS 3 Xrotation Yrotation Zrotation
						JOINT LeftShoulder_split
						{
							OFFSET 3.288150 8.794197 -1.372250
							CHANNELS 3 Xrotation Yrotation Zrotation
							JOINT LeftArm
							{
								OFFSET 11.953299 -2.279007 -0.146200
								CHANNELS 3 Xrotation Yrotation Zrotation
								JOINT LeftForeArm
								{
									OFFSET 18.448900 0.000000 0.000000
									CHANNELS 3 Xrotation Yrotation Zrotation
									JOINT LeftHand
									{
										OFFSET 29.527798 0.000000 0.000000
										CHANNELS 3 Xrotation Yrotation Zrotation
										JOINT LeftHandThumb1
										{
											OFFSET 10.739754 -2.369614 9.225399
											CHANNELS 3 Xrotation Yrotation Zrotation
											JOINT LeftHandThumb2
											{
												OFFSET 4.926170 -2.844131 2.844125
												CHANNELS 3 Xrotation Yrotation Zrotation
												JOINT LeftHandThumb3
												{
													OFFSET 4.614891 -2.664413 2.664409
													CHANNELS 3 Xrotation Yrotation Zrotation
													JOINT LeftHandThumb4
													{
														OFFSET 4.432465 -2.559082 2.559083
														CHANNELS 3 Xrotation Yrotation Zrotation
														End Site
														{
															OFFSET 0.000000 0.000000 0.000000
														}
													}
												}
											}
										}
										JOINT LeftHandIndex1
										{
											OFFSET 26.467674 0.187653 6.405298
											CHANNELS 3 Xrotation Yrotation Zrotation
											JOINT LeftHandIndex2
											{
												OFFSET 8.792900 0.000000 0.000000
												CHANNELS 3 Xrotation Yrotation Zrotation
												JOINT LeftHandIndex3
												{
													OFFSET 10.075203 0.000000 0.000000
													CHANNELS 3 Xrotation Yrotation Zrotation
													End Site
													{
														OFFSET 0.000000 0.000000 0.000000
													}
												}
											}
										}
										JOINT LeftHandMiddle1
										{
											OFFSET 25.764404 0.000000 0.000000
											CHANNELS 3 Xrotation Yrotation Zrotation
											JOINT LeftHandMiddle2
											{
												OFFSET 9.393974 0.000000 0.000000
												CHANNELS 3 Xrotation Yrotation Zrotation
												JOINT LeftHandMiddle3
												{
													OFFSET 10.771950 0.000000 0.000000
													CHANNELS 3 Xrotation Yrotation Zrotation
													End Site
													{
														OFFSET 0.000000 0.000000 0.000000
													}
												}
											}
										}
										JOINT LeftHandRing1
										{
											OFFSET 24.660927 0.144547 -6.225808
											CHANNELS 3 Xrotation Yrotation Zrotation
											JOINT LeftHandRing2
											{
												OFFSET 9.393799 0.000000 0.000000
												CHANNELS 3 Xrotation Yrotation Zrotation
												JOINT LeftHandRing3
												{
													OFFSET 9.928497 0.000000 0.000000
													CHANNELS 3 Xrotation Yrotation Zrotation
													End Site
													{
														OFFSET 0.000000 0.000000 0.000000
													}
												}
											}
										}
										JOINT LeftHandPinky1
										{
											OFFSET 23.655350 0.125290 -12.815412
											CHANNELS 3 Xrotation Yrotation Zrotation
											JOINT LeftHandPinky2
											{
												OFFSET 8.425102 0.000000 0.000000
												CHANNELS 3 Xrotation Yrotation Zrotation
												JOINT LeftHandPinky3
												{
													OFFSET 8.147003 0.000000 0.000000
													CHANNELS 3 Xrotation Yrotation Zrotation
													End Site
													{
														OFFSET 0.000000 0.000000 0.000000
													}
												}
											}
										}
									}
								}
							}
						}
					}
					JOINT RightShoulder
					{
						OFFSET -3.249400 8.794197 -1.372250
						CHANNELS 3 Xrotation Yrotation Zrotation
						JOINT RightShoulder_split
						{
							OFFSET -3.249400 8.794197 -1.372250
							CHANNELS 3 Xrotation Yrotation Zrotation
							JOINT RightArm
							{
								OFFSET -11.953299 -2.279007 -0.146200
								CHANNELS 3 Xrotation Yrotation Zrotation
								JOINT RightForeArm
								{
									OFFSET -18.448900 0.000000 0.000000
									CHANNELS 3 Xrotation Yrotation Zrotation
									JOINT RightHand
									{
										OFFSET -29.527802 0.000000 0.000000
										CHANNELS 3 Xrotation Yrotation Zrotation
										JOINT RightHandThumb1
										{
											OFFSET -10.739754 -2.369614 9.225399
											CHANNELS 3 Xrotation Yrotation Zrotation
											JOINT RightHandThumb2
											{
												OFFSET -4.926170 -2.844131 2.844125
												CHANNELS 3 Xrotation Yrotation Zrotation
												JOINT RightHandThumb3
												{
													OFFSET -4.614891 -2.664413 2.664409
													CHANNELS 3 Xrotation Yrotation Zrotation
													JOINT RightHandThumb4
													{
														OFFSET -4.432465 -2.559082 2.559083
														CHANNELS 3 Xrotation Yrotation Zrotation
														End Site
														{
															OFFSET 0.000000 0.000000 0.000000
														}
													}
												}
											}
										}
										JOINT RightHandIndex1
										{
											OFFSET -26.467674 0.187653 6.405298
											CHANNELS 3 Xrotation Yrotation Zrotation
											JOINT RightHandIndex2
											{
												OFFSET -8.792900 0.000000 0.000000
												CHANNELS 3 Xrotation Yrotation Zrotation
												JOINT RightHandIndex3
												{
													OFFSET -10.075203 0.000000 0.000000
													CHANNELS 3 Xrotation Yrotation Zrotation
													End Site
													{
														OFFSET 0.000000 0.000000 0.000000
													}
												}
											}
										}
										JOINT RightHandMiddle1
										{
											OFFSET -25.764404 0.000000 0.000000
											CHANNELS 3 Xrotation Yrotation Zrotation
											JOINT RightHandMiddle2
											{
												OFFSET -9.393974 0.000000 0.000000
												CHANNELS 3 Xrotation Yrotation Zrotation
												JOINT RightHandMiddle3
												{
													OFFSET -10.771950 0.000000 0.000000
													CHANNELS 3 Xrotation Yrotation Zrotation
													End Site
													{
														OFFSET 0.000000 0.000000 0.000000
													}
												}
											}
										}
										JOINT RightHandRing1
										{
											OFFSET -24.660927 0.144547 -6.225808
											CHANNELS 3 Xrotation Yrotation Zrotation
											JOINT RightHandRing2
											{
												OFFSET -9.393799 0.000000 0.000000
												CHANNELS 3 Xrotation Yrotation Zrotation
												JOINT RightHandRing3
												{
													OFFSET -9.928497 0.000000 0.000000
													CHANNELS 3 Xrotation Yrotation Zrotation
													End Site
													{
														OFFSET 0.000000 0.000000 0.000000
													}
												}
											}
										}
										JOINT RightHandPinky1
										{
											OFFSET -23.655350 0.125290 -12.815412
											CHANNELS 3 Xrotation Yrotation Zrotation
											JOINT RightHandPinky2
											{
												OFFSET -8.425102 0.000000 0.000000
												CHANNELS 3 Xrotation Yrotation Zrotation
												JOINT RightHandPinky3
												{
													OFFSET -8.147003 0.000000 0.000000
													CHANNELS 3 Xrotation Yrotation Zrotation
													End Site
													{
														OFFSET 0.000000 0.000000 0.000000
													}
												}
											}
										}
									}
								}
							}
						}
					}
				}
			}
		}
	}
	JOINT LeftUpLeg
	{
		OFFSET 11.394100 -6.187798 -0.413800
		CHANNELS 3 Xrotation Yrotation Zrotation
		JOINT LeftLeg
		{
			OFFSET 0.430247 -32.302673 3.732800
			CHANNELS 3 Xrotation Yrotation Zrotation
			JOINT LeftFoot
			{
				OFFSET -0.430247 -48.264931 -6.423300
				CHANNELS 3 Xrotation Yrotation Zrotation
				JOINT LeftToeBase
				{
					OFFSET 4.230900 -16.068199 23.438400
					CHANNELS 3 Xrotation Yrotation Zrotation
					JOINT LeftToe_End
					{
						OFFSET 4.510700 0.695400 19.974600
						CHANNELS 3 Xrotation Yrotation Zrotation
						End Site
						{
							OFFSET 0.000000 0.000000 0.000000
						}
					}
				}
			}
		}
	}
	JOINT RightUpLeg
	{
		OFFSET -11.333700 -6.187798 -0.413800
		CHANNELS 3 Xrotation Yrotation Zrotation
		JOINT RightLeg
		{
			OFFSET -0.430392 -32.302628 3.733000
			CHANNELS 3 Xrotation Yrotation Zrotation
			JOINT RightFoot
			{
				OFFSET 0.430392 -48.264973 -6.423500
				CHANNELS 3 Xrotation Yrotation Zrotation
				JOINT RightToeBase
				{
					OFFSET -4.230900 -16.068199 23.438400
					CHANNELS 3 Xrotation Yrotation Zrotation
					JOINT RightToe_End
					{
						OFFSET -4.510700 0.695400 19.974600
						CHANNELS 3 Xrotation Yrotation Zrotation
						End Site
						{
							OFFSET 0.000000 0.000000 0.000000
						}
					}
				}
			}
		}
	}
}
MOTION
Frames: 6
Frame Time: 0.016667
-3.616233 97.659241 -7.175624 -2.955048 -1.491129 2.130872 8.853306 2.936626 -5.115319 1.276165 0.577129 -0.622581 0.000000 0.000000 0.000000 1.278390 0.567048 -0.629523 -6.061339 0.449846 0.950596 5.338943 4.042161 -5.183568 0.000001 0.000000 -0.000000 -0.302512 5.872713 -1.999015 0.000000 0.000000 0.000000 -14.720683 -10.177258 -69.280999 -0.000012 -33.970199 0.000006 11.041598 5.640849 -12.077310 -1.528259 3.687859 6.128914 3.939049 7.948701 0.746789 -0.579473 1.575005 2.538707 -0.000001 0.000002 -0.000003 0.033127 0.675969 -5.610573 0.032968 0.674437 -5.597728 -0.000001 0.000002 0.000001 0.069859 0.980268 -8.151092 0.078703 1.040171 -8.653168 0.000001 0.000000 0.000001 0.141441 1.391199 -11.609546 0.158280 1.470736 -12.283632 0.000002 0.000001 -0.000001 1.260521 5.698233 -14.444240 0.229457 -2.281942 -15.368581 -0.000001 0.000003 0.000001 4.545748 12.839001 -7.835332 0.000000 0.000000 0.000000 -1.611812 -3.214995 72.442537 0.000005 36.829702 -0.000025 4.215977 0.157716 15.844622 -1.849254 -3.581788 -6.586136 4.637194 -8.634122 -0.225387 -1.273761 0.137315 -2.094859 -0.000001 -0.000000 0.000001 0.097316 -1.161568 9.577307 0.097302 -1.161580 9.577304 0.000001 0.000001 -0.000001 0.734458 -4.504861 10.622741 0.142210 -1.401925 11.584703 0.000003 -0.000000 -0.000002 1.799554 -8.681480 12.425405 0.204355 -1.676603 13.897318 -0.000002 -0.000001 0.000000 3.081994 -12.378816 14.479202 0.252510 -1.860363 15.457613 -0.000000 0.000001 0.000003 -21.013415 6.525803 2.568450 29.722804 7.502310 -1.034568 -5.339051 0.438415 -1.582164 -0.002835 0.000001 -0.000000 -0.000000 -0.000000 0.000000 -9.059487 -16.262563 -13.672299 26.979047 -1.013872 -5.446710 -15.131823 -0.758501 13.985294 -6.790992 -0.000002 0.000000 0.000000 -0.000001 -0.000000 
-3.656477 97.653976 -7.302019 -2.858910 -1.563060 2.115178 8.975620 2.830725 -5.230049 1.296462 0.561210 -0.636463 0.000000 0.000000 0.000000 1.298515 0.551112 -0.643278 -6.130196 0.380287 1.181956 5.083280 4.090374 -5.065638 -0.000001 0.000001 -0.000000 -0.303982 5.822777 -1.781759 0.000000 0.000000 0.000000 -14.889691 -10.799706 -69.024437 0.000004 -34.489880 0.000007 10.925304 5.810016 -12.083952 -1.528124 3.687830 6.128759 3.939050 7.948701 0.746785 -0.579473 1.575008 2.538703 0.000001 0.000000 -0.000001 0.033127 0.675967 -5.610573 0.032966 0.674437 -5.597730 -0.000001 0.000001 0.000001 0.069860 0.980267 -8.151093 0.078702 1.040173 -8.653168 0.000000 0.000002 0.000000 0.141441 1.391198 -11.609549 0.158277 1.470734 -12.283632 0.000000 -0.000003 -0.000001 1.260525 5.698232 -14.444240 0.229453 -2.281941 -15.368581 -0.000001 0.000000 0.000001 4.504496 12.696258 -7.406782 0.000000 0.000000 0.000000 -1.846147 -3.449438 72.003779 0.000007 37.086568 -0.000022 4.778067 -0.150849 16.413879 -1.849256 -3.581787 -6.586140 4.637194 -8.634122 -0.225388 -1.273760 0.137316 -2.094862 0.000002 -0.000002 -0.000000 0.097310 -1.161568 9.577309 0.097305 -1.161582 9.577305 -0.000002 -0.000002 -0.000000 0.734452 -4.504864 10.622743 0.142210 -1.401926 11.584706 0.000002 0.000001 0.000001 1.799548 -8.681480 12.425408 0.204357 -1.676603 13.897318 -0.000003 -0.000000 0.000000 3.081985 -12.378815 14.479204 0.252511 -1.860364 15.457615 -0.000004 0.000000 0.000001 -21.194147 6.541076 2.655333 29.731219 7.769707 -1.069471 -5.245634 0.453270 -1.610148 -0.002875 0.000005 0.000001 0.000000 -0.000000 0.000000 -9.262238 -16.159408 -13.603619 27.033242 -0.867972 -5.404068 -15.157793 -0.897384 13.891547 -6.654316 -0.000009 0.000001 0.000000 -0.000001 -0.000000 
-3.699676 97.650589 -7.437916 -2.750376 -1.629327 2.093934 9.105622 2.702279 -5.320629 1.319396 0.540907 -0.647529 0.000000 0.000000 0.000000 1.321270 0.530790 -0.654145 -6.190338 0.319002 1.390179 4.811083 4.139860 -4.959372 0.000000 -0.000000 0.000000 -0.303281 5.756982 -1.555983 0.000000 0.000000 0.000000 -15.042477 -11.360660 -68.812626 0.000017 -34.989208 0.000029 10.923325 5.925821 -12.107365 -1.527916 3.687836 6.128566 3.939049 7.948699 0.746788 -0.579472 1.575006 2.538704 0.000000 -0.000001 -0.000001 0.033129 0.675969 -5.610574 0.032965 0.674438 -5.597730 -0.000000 0.000001 0.000001 0.069862 0.980268 -8.151095 0.078702 1.040169 -8.653168 0.000001 -0.000000 0.000001 0.141444 1.391200 -11.609545 0.158277 1.470739 -12.283631 0.000002 0.000002 -0.000001 1.260525 5.698233 -14.444240 0.229457 -2.281943 -15.368580 -0.000001 0.000003 0.000001 4.474240 12.585511 -7.073512 0.000000 0.000000 0.000000 -2.036079 -3.701650 71.662222 -0.000004 37.330184 0.000001 5.206091 -0.406972 16.986156 -1.849256 -3.581787 -6.586141 4.637197 -8.634122 -0.225387 -1.273763 0.137315 -2.094860 0.000003 0.000001 0.000001 0.097316 -1.161569 9.577308 0.097305 -1.161581 9.577303 -0.000001 -0.000001 -0.000000 0.734457 -4.504862 10.622744 0.142207 -1.401926 11.584706 -0.000000 0.000001 0.000000 1.799554 -8.681480 12.425404 0.204359 -1.676604 13.897318 -0.000000 -0.000000 0.000000 3.081989 -12.378815 14.479204 0.252507 -1.860364 15.457613 -0.000001 -0.000000 0.000001 -21.393326 6.537257 2.737333 29.732852 8.069739 -1.089320 -5.138726 0.462028 -1.649691 -0.002945 -0.000001 0.000001 0.000000 0.000001 0.000000 -9.487742 -16.055927 -13.537912 27.097012 -0.751249 -5.354736 -15.171998 -1.011994 13.810275 -6.535775 0.000000 0.000001 0.000000 0.000000 0.000000 
-3.753603 97.653831 -7.599131 -2.598599 -1.664056 2.059483 9.248958 2.505155 -5.348192 1.348061 0.507319 -0.651502 0.000000 0.000000 0.000000 1.349749 0.497194 -0.657720 -6.227111 0.278792 1.541825 4.498675 4.198864 -4.883207 0.000000 -0.000000 0.000000 -0.297161 5.645768 -1.293702 0.000000 0.000000 0.000000 -15.168836 -11.755809 -68.723827 0.000001 -35.439738 0.000005 11.246023 5.895236 -12.186530 -1.527500 3.687788 6.128154 3.939049 7.948703 0.746785 -0.579471 1.575007 2.538707 0.000000 0.000001 0.000000 0.033125 0.675972 -5.610574 0.032967 0.674434 -5.597729 0.000001 -0.000001 0.000001 0.069859 0.980270 -8.151093 0.078705 1.040171 -8.653168 0.000001 -0.000003 0.000002 0.141437 1.391200 -11.609546 0.158281 1.470737 -12.283630 0.000000 0.000000 -0.000000 1.260522 5.698231 -14.444242 0.229458 -2.281943 -15.368581 -0.000003 0.000003 0.000001 4.469009 12.563348 -6.980661 0.000000 0.000000 0.000000 -2.107496 -4.025330 71.586735 -0.000000 37.565306 0.000016 5.445494 -0.606392 17.768290 -1.849255 -3.581789 -6.586137 4.637193 -8.634123 -0.225387 -1.273760 0.137316 -2.094859 0.000001 -0.000000 0.000002 0.097312 -1.161571 9.577308 0.097305 -1.161583 9.577305 -0.000000 0.000001 -0.000000 0.734453 -4.504861 10.622745 0.142209 -1.401929 11.584706 -0.000000 0.000001 0.000000 1.799550 -8.681480 12.425408 0.204358 -1.676602 13.897318 -0.000004 -0.000000 0.000001 3.081991 -12.378814 14.479204 0.252510 -1.860363 15.457613 -0.000003 0.000000 0.000002 -21.649990 6.470164 2.793923 29.708164 8.490202 -1.056211 -4.990161 0.422921 -1.730930 -0.003075 -0.000002 -0.000000 0.000000 0.000000 0.000000 -9.781966 -15.957711 -13.486366 27.187261 -0.720327 -5.277049 -15.153576 -1.063447 13.757332 -6.474733 0.000000 -0.000001 -0.000000 -0.000002 0.000000 
-3.806935 97.657196 -7.776221 -2.446561 -1.722177 2.011417 9.419504 2.287624 -5.332525 1.383673 0.469616 -0.649913 0.000000 0.000000 0.000000 1.385199 0.459451 -0.655662 -6.249578 0.254371 1.644643 4.154949 4.254123 -4.827951 -0.000000 0.000000 0.000001 -0.286550 5.514381 -1.044846 0.000000 0.000000 0.000000 -15.270256 -12.043485 -68.677655 0.000011 -35.845386 0.000005 11.719224 5.781202 -12.275096 -1.526933 3.687726 6.127592 3.939047 7.948704 0.746785 -0.579474 1.575006 2.538708 -0.000001 -0.000001 -0.000001 0.033127 0.675970 -5.610574 0.032966 0.674434 -5.597729 0.000000 -0.000002 0.000000 0.069858 0.980270 -8.151093 0.078700 1.040168 -8.653165 0.000002 0.000001 0.000000 0.141438 1.391200 -11.609547 0.158279 1.470738 -12.283632 -0.000001 -0.000000 0.000003 1.260521 5.698230 -14.444242 0.229457 -2.281945 -15.368581 -0.000001 0.000003 0.000001 4.475548 12.587491 -7.070219 0.000000 0.000000 0.000000 -2.082178 -4.351411 71.670322 0.000006 37.724675 -0.000011 5.090792 -0.623882 18.111602 -1.849251 -3.581782 -6.586140 4.637195 -8.634124 -0.225389 -1.273764 0.137315 -2.094858 0.000002 -0.000000 0.000002 0.097315 -1.161568 9.577309 0.097310 -1.161581 9.577308 -0.000000 -0.000001 -0.000001 0.734457 -4.504860 10.622742 0.142208 -1.401930 11.584702 0.000000 0.000002 0.000001 1.799554 -8.681479 12.425408 0.204364 -1.676604 13.897321 -0.000002 0.000000 -0.000000 3.081994 -12.378814 14.479202 0.252509 -1.860363 15.457613 -0.000001 0.000000 0.000002 -21.930945 6.395436 2.869143 29.714140 8.896940 -1.025409 -4.876948 0.438539 -1.812264 -0.003253 0.000007 0.000000 -0.000000 -0.000001 -0.000000 -10.095626 -15.847721 -13.425790 27.288641 -0.723006 -5.209009 -15.120483 -1.070798 13.730892 -6.425561 0.000004 0.000003 -0.000000 -0.000001 -0.000000 
-3.850456 97.656052 -7.964345 -2.337625 -1.840072 1.948247 9.634288 2.070543 -5.273454 1.429080 0.431556 -0.642607 0.000000 0.000000 0.000000 1.430489 0.421271 -0.647860 -6.257623 0.247002 1.687131 3.780375 4.293483 -4.794114 0.000000 -0.000000 0.000000 -0.271365 5.373834 -0.850811 0.000000 0.000000 0.000000 -15.332238 -12.234169 -68.632842 0.000007 -36.212556 0.000004 12.249775 5.609166 -12.338499 -1.526222 3.687659 6.126900 3.939049 7.948704 0.746785 -0.579473 1.575005 2.538706 -0.000001 -0.000000 -0.000000 0.033132 0.675973 -5.610574 0.032966 0.674434 -5.597728 0.000002 -0.000003 0.000001 0.069864 0.980271 -8.151094 0.078703 1.040168 -8.653169 0.000001 0.000002 0.000001 0.141446 1.391201 -11.609546 0.158279 1.470735 -12.283631 0.000002 0.000000 0.000001 1.260524 5.698237 -14.444242 0.229453 -2.281939 -15.368581 0.000003 0.000002 0.000001 4.487080 12.634553 -7.361239 0.000000 0.000000 0.000000 -1.952237 -4.614778 71.883841 0.000004 37.704294 0.000013 3.506017 -0.209440 17.303203 -1.849253 -3.581790 -6.586136 4.637192 -8.634122 -0.225386 -1.273768 0.137313 -2.094859 -0.000001 0.000001 0.000003 0.097312 -1.161574 9.577310 0.097306 -1.161583 9.577308 0.000002 -0.000001 -0.000000 0.734457 -4.504864 10.622745 0.142207 -1.401927 11.584705 0.000001 -0.000000 0.000001 1.799553 -8.681480 12.425408 0.204358 -1.676605 13.897318 -0.000002 -0.000000 0.000001 3.081993 -12.378815 14.479204 0.252510 -1.860364 15.457613 0.000000 0.000001 0.000001 -22.196672 6.348225 2.994647 29.779379 9.182921 -1.037189 -4.831159 0.599884 -1.863278 -0.003481 -0.000007 -0.000001 0.000000 -0.000002 -0.000000 -10.378093 -15.717165 -13.331810 27.386675 -0.722952 -5.190968 -15.082820 -1.051552 13.736719 -6.354539 -0.000004 0.000000 -0.000001 -0.000000 0.000000 
